PathFileType	4	(X/Y/Z)	Run_300 01
DataRate	CameraRate	NumFrames	NumMarkers	Units	OrigDataRate	OrigDataStartFrame	OrigNumFrames
120	120	7	41	mm	120	203	125
Frame#	Time	LASI			RASI			LPSI			RPSI			RTH1			RTH3			LTH1			LTH2			LTH3			RTB1			RTB2			RTB3			LTB1			LTB2			LTB3			RCAL			RTOE			RMT5			LCAL			LTOE			LMT5			LACR			RACR			CLAV			C7			RUA1			RUA2			RUA3			RLEL			RMEL			LUA1			LUA2			LUA3			LLEL			LMEL			RFAsuperior			RFAradius			RFAulna			LFAsuperior			LFAradius			LFAulna			
		X1	Y1	Z1	X2	Y2	Z2	X3	Y3	Z3	X4	Y4	Z4	X5	Y5	Z5	X6	Y6	Z6	X7	Y7	Z7	X8	Y8	Z8	X9	Y9	Z9	X10	Y10	Z10	X11	Y11	Z11	X12	Y12	Z12	X13	Y13	Z13	X14	Y14	Z14	X15	Y15	Z15	X16	Y16	Z16	X17	Y17	Z17	X18	Y18	Z18	X19	Y19	Z19	X20	Y20	Z20	X21	Y21	Z21	X22	Y22	Z22	X23	Y23	Z23	X24	Y24	Z24	X25	Y25	Z25	X26	Y26	Z26	X27	Y27	Z27	X28	Y28	Z28	X29	Y29	Z29	X30	Y30	Z30	X31	Y31	Z31	X32	Y32	Z32	X33	Y33	Z33	X34	Y34	Z34	X35	Y35	Z35	X36	Y36	Z36	X37	Y37	Z37	X38	Y38	Z38	X39	Y39	Z39	X40	Y40	Z40	X41	Y41	Z41	

203	2.183333	898.0874700000001	986.078811	-395.104714	898.437257	977.4494549999999	-162.680337	739.41586	1020.972308	-328.239422	734.39998	1022.138872	-230.191637	822.8994290000001	813.334604	-109.206067	798.447602	557.689536	-174.603655	894.60783	811.089602	-457.456484	1001.390071	744.593949	-445.837996	991.482486	619.243715	-433.779636	766.840994	330.033195	-257.092757	713.902523	289.067598	-189.744644	689.051473	233.118056	-259.676645	984.792023	433.734957	-356.408016	894.91241	429.225811	-429.000122	834.5820649999999	351.963506	-359.265174	505.610344	130.067449	-245.530755	700.877796	71.052751	-289.839881	686.32785	61.470822	-194.305158	655.4752549999999	355.294313	-353.04123	778.43283	187.525715	-342.363511	753.503611	191.349379	-430.708986	871.263338	1453.046592	-461.739384	908.643148	1435.90414	-70.289843	950.209446	1433.460444	-252.921151	827.903044	1498.658008	-274.009883	860.741909	1299.957819	-18.159225	785.47696	1293.71907	-24.29878	826.358214	1222.805884	13.04221	800.51757	1158.355321	36.665078	760.101738	1137.34689	-32.309291	777.682405	1356.547958	-522.224151	700.886164	1338.610371	-512.86158	742.2547489999999	1274.038934	-541.326938	669.611486	1228.517342	-565.615787	633.117293	1235.92962	-488.102163	907.767594	1104.832933	-9.811804	983.823275	1065.147084	-93.937748	973.117691	1008.536653	-52.19711	756.269663	1134.910336	-541.866589	835.50366	1086.877088	-454.318066	817.4136099999999	1045.814889	-506.379747	
204	2.191667	899.6027329999999	993.621517	-396.159285	901.509739	981.93927	-163.739706	741.253412	1028.13822	-327.925777	737.7032400000001	1028.05352	-229.882786	821.714757	818.420217	-110.311536	784.175352	564.5382509999999	-175.335049	898.4262	819.502359	-457.865484	1005.134223	754.665434	-445.517764	996.933463	628.884819	-432.887266	746.582306	336.478274	-256.930589	693.265867	296.212038	-189.433961	668.3389570000001	239.685555	-258.707656	997.403922	437.999345	-356.528755	908.949831	426.744598	-427.428842	854.174773	345.181539	-357.882757	485.161079	139.234311	-244.351549	677.5400529999999	71.202095	-290.317155	662.565769	61.98396	-194.45871	675.606449	333.777969	-352.205406	812.943338	177.945063	-340.575378	788.520157	179.324611	-429.154339	867.56596	1460.698372	-461.849479	911.549697	1443.843166	-72.097827	949.991485	1440.811467	-255.234617	827.3013539999999	1504.99946	-274.05399	865.647925	1307.614464	-19.021193	790.3008610000001	1300.84707	-23.012046	832.83422	1230.316385	12.641908	807.619987	1165.591549	36.439682	765.96177	1144.516325	-31.852499	772.663491	1366.775984	-522.026388	696.091652	1349.875014	-511.367883	736.173101	1284.900153	-541.18648	662.393115	1240.40482	-564.696351	626.8747969999999	1248.094024	-486.316894	915.118299	1116.495512	-13.139286	990.456631	1080.240015	-99.810444	982.585809	1022.936475	-58.414988	748.893251	1146.585613	-542.238694	828.978776	1097.679184	-455.520202	810.487946	1056.995127	-507.664338	
205	2.2	901.489865	1001.451869	-397.64342	904.819235	986.668598	-164.909	743.300613	1035.600781	-327.605921	741.174485	1034.294917	-229.711951	821.112328	823.8474200000001	-111.464781	770.8804689999999	572.452443	-175.43191	902.323387	827.691568	-458.237264	1008.53379	764.255676	-445.302398	1001.452681	638.007507	-431.971535	727.562983	344.25857	-256.213786	673.772843	304.656701	-188.648332	648.950317	247.489566	-257.013375	1009.444642	442.376544	-355.416628	922.95237	423.828754	-425.831594	874.270964	338.480183	-356.307353	466.353483	149.899696	-243.374136	654.713737	70.97842900000001	-290.750267	639.255865	62.391604	-194.801472	697.313884	312.008486	-351.595258	847.990203	169.315438	-338.140158	824.280396	168.093377	-427.023806	864.1990029999999	1468.292175	-461.921522	914.395768	1451.910349	-73.996258	949.77349	1448.271473	-257.419388	826.7307049999999	1511.521998	-274.062766	870.296579	1315.574167	-19.855897	794.865896	1308.465387	-21.554849	838.865416	1238.271978	12.400511	814.174651	1173.271559	36.315599	771.315302	1152.068247	-31.240949	767.996409	1376.878898	-521.71225	691.633626	1361.004646	-509.130194	730.39314	1295.894383	-540.829075	655.668866	1252.180699	-563.534311	621.291355	1260.015071	-484.239637	921.611348	1128.348364	-16.224112	995.958853	1095.323585	-105.390332	990.8439959999999	1037.503796	-64.437541	741.994672	1157.968745	-542.281348	823.257029	1108.574271	-456.469467	804.1084520000001	1068.054341	-508.462109	
206	2.208333	903.599755	1009.457341	-399.41782	908.328354	991.539366	-166.174516	745.494911	1043.226538	-327.25174	744.7715449999999	1040.751087	-229.659844	820.762028	829.66463	-112.597517	758.67761	581.064673	-174.919194	906.069921	835.687092	-458.658816	1011.489961	773.1922499999999	-445.170293	1004.858688	646.277749	-430.758213	709.950584	353.020593	-254.855856	655.564347	314.085935	-187.368164	631.230852	256.217641	-254.897533	1020.719015	446.618024	-353.79889	936.812134	420.653529	-424.275344	894.814154	331.910133	-354.60413	449.365653	161.65978	-242.637658	632.32349	70.44130199999999	-290.989466	616.375591	62.681115	-195.29071	720.595649	290.203733	-351.139625	883.5053799999999	161.774995	-335.232485	860.6579410000001	157.775235	-424.459385	861.1643790000001	1475.688886	-461.980099	917.184862	1459.956544	-75.946696	949.6004799999999	1455.697011	-259.468258	826.1993660000001	1518.08425	-274.095686	874.675071	1323.683515	-20.639545	799.191016	1316.497328	-19.973715	844.414569	1246.496209	12.30763	820.178932	1181.192327	36.277753	776.1624	1159.797016	-30.512865	763.657999	1386.634344	-521.15942	687.493575	1371.747435	-506.315149	724.880956	1306.845125	-540.294838	649.417041	1263.681143	-562.118841	616.348894	1271.427966	-481.978622	927.312244	1140.168678	-19.103765	1000.486891	1110.23014	-110.555775	998.022031	1052.033912	-70.18854	735.6015159999999	1168.988847	-542.041482	818.209102	1119.379874	-457.19965	798.247645	1078.822368	-508.850259	
207	2.216667	905.725061	1017.491225	-401.180514	911.973344	996.507744	-167.655548	747.870706	1050.867597	-326.997569	748.493326	1047.300263	-229.75243	820.464396	835.84746	-113.663516	747.59492	590.072554	-173.863296	909.4659830000001	843.551869	-459.236753	1013.952555	781.37332	-445.123446	1006.989055	653.5221759999999	-428.955706	693.810143	362.348211	-252.757579	638.686096	324.171895	-185.524174	615.34556	265.436717	-252.490455	1031.060604	450.536405	-352.204811	950.3218429999999	417.344009	-422.817424	915.6390249999999	325.530855	-352.892566	434.284968	174.17218	-242.057606	610.312449	69.886323	-290.99321	593.873769	63.001924	-195.726292	745.460536	268.566546	-350.698885	919.379375	155.582034	-332.129289	897.515659	148.523026	-421.590059	858.429723	1482.799433	-462.021413	919.892072	1467.854459	-77.90131700000001	949.51468	1462.959665	-261.371897	825.7406999999999	1524.526	-274.231099	878.796821	1331.783098	-21.365495	803.348398	1324.821084	-18.392343	849.492667	1254.820812	12.348518	825.647399	1189.167726	36.306852	780.516172	1167.569936	-29.727352	759.6144860000001	1395.904579	-520.232663	683.668964	1381.896627	-503.125134	719.637872	1317.556849	-539.626008	643.610575	1274.735811	-560.446183	611.999678	1282.104911	-479.603739	932.28417	1151.75313	-21.825287	1004.179074	1124.782678	-115.292949	1004.205918	1066.2811	-75.62258300000001	729.737436	1179.585915	-541.58823	813.732722	1129.903295	-457.781497	792.924267	1089.162786	-508.962229	
208	2.225	907.703608	1025.359847	-402.664794	915.6551899999999	1001.565443	-169.5458	750.508376	1058.362897	-327.025755	752.396387	1053.814004	-230.04054	820.228315	842.276335	-114.655365	737.577041	599.344478	-172.350315	912.358647	851.268117	-460.027119	1015.888853	788.710718	-445.18484	1007.758754	659.732021	-426.4311	679.086529	371.912288	-249.911214	623.064771	334.678967	-183.08306	601.163906	274.780862	-249.754304	1040.446844	454.012703	-350.808818	963.296739	413.935374	-421.492962	936.583255	319.434687	-351.283504	421.089951	187.249431	-241.42658	588.692288	69.787245	-290.766562	571.707351	63.643313	-195.865179	771.893417	247.347899	-350.154266	955.43818	151.038581	-329.03744	934.708121	140.579836	-418.478536	855.951636	1489.558559	-462.030761	922.471753	1475.499578	-79.806969	949.532709	1469.932485	-263.112285	825.3957820000001	1530.702248	-274.496953	882.7027859999999	1339.718716	-22.041844	807.4286	1333.238886	-16.998548	854.1559559999999	1263.087056	12.520529	830.606792	1197.037755	36.387126	784.394408	1175.302597	-28.940724	755.852831	1404.632844	-518.943921	680.184914	1391.323	-499.778695	714.695398	1327.799558	-538.855934	638.229817	1285.159725	-558.537345	608.202963	1291.902536	-477.142634	936.584204	1162.919505	-24.405769	1007.141612	1138.797621	-119.649246	1009.433526	1079.963069	-80.725059	724.422718	1189.674793	-540.991475	809.778913	1139.958099	-458.310035	788.191375	1098.965587	-508.955186	
209	2.233333	909.512984	1032.842757	-403.839633	919.282346	1006.687168	-171.929208	753.423117	1065.547148	-327.38994	756.548398	1060.167712	-230.557844	820.199616	848.7904	-115.55747	728.540476	608.855656	-170.551327	914.6268229999999	858.71073	-461.035585	1017.210329	795.038947	-445.363785	1007.182117	664.946047	-423.358322	665.643548	381.560769	-246.502296	608.546036	345.496275	-180.156939	588.3336870000001	284.06115	-246.609887	1048.998016	456.989411	-349.514806	975.701411	410.381382	-420.301627	957.530458	313.757143	-349.79639	409.676791	200.842684	-240.46505	567.583787	70.655959	-290.263587	549.92482	64.974261	-195.547316	799.786525	226.902577	-349.459725	991.39763	148.386076	-325.944143	972.07349	134.326266	-415.146672	853.6976100000001	1495.903665	-461.998017	924.877056	1482.794553	-81.62479399999999	949.6400149999999	1476.488386	-264.671823	825.186959	1536.499732	-274.836661	886.430372	1347.353051	-22.685617	811.464468	1341.482986	-15.99792	858.474676	1271.143358	12.83131	835.085725	1204.672415	36.508504	787.7938370000001	1182.928423	-28.187972	752.397559	1412.798786	-517.53015	677.082072	1399.961089	-496.51089	710.111951	1337.325708	-538.011476	633.277273	1294.767259	-556.4447719999999	604.940299	1300.76863	-474.602169	940.262746	1173.511379	-26.822601	1009.435503	1152.066785	-123.68678	1013.723383	1092.815188	-85.509029	719.685998	1199.135984	-540.321719	806.347498	1149.38017	-458.874307	784.115862	1108.135332	-508.979509	
